# Blender v2.90.1 OBJ File: 'grass.blend'
# www.blender.org
mtllib grass.mtl
o Cone
v -0.029233 0.009334 -0.234736
v 0.217904 0.009334 0.092052
v -0.188671 0.009334 0.142684
v 0.104322 2.349356 0.085308
vt 0.250000 0.490000
vt 0.250000 0.250000
vt 0.457846 0.130000
vt 0.750000 0.490000
vt 0.957846 0.130000
vt 0.542154 0.130000
vt 0.042154 0.130000
vn 0.7971 0.0370 -0.6028
vn 0.0000 -1.0000 0.0000
vn 0.1236 0.0089 0.9923
vn -0.9161 0.1052 -0.3870
usemtl None
s off
f 1/1/1 4/2/1 2/3/1
f 1/4/2 2/5/2 3/6/2
f 2/3/3 4/2/3 3/7/3
f 3/7/4 4/2/4 1/1/4
o Cone.001
v -0.244913 0.008847 0.095385
v -0.480490 0.008847 0.285565
v -0.527403 0.008847 -0.013541
v -0.532695 1.744873 0.085443
vt 0.250000 0.490000
vt 0.250000 0.250000
vt 0.457846 0.130000
vt 0.750000 0.490000
vt 0.957846 0.130000
vt 0.542154 0.130000
vt 0.042154 0.130000
vn 0.6245 0.1080 0.7735
vn 0.0000 -1.0000 0.0000
vn -0.9879 -0.0118 0.1549
vn 0.3592 0.0542 -0.9317
usemtl None
s off
f 5/8/5 8/9/5 6/10/5
f 5/11/6 6/12/6 7/13/6
f 6/10/7 8/9/7 7/14/7
f 7/14/8 8/9/8 5/8/8
o Cone.002
v -0.186275 0.013410 -0.494206
v -0.361107 0.013410 -0.193837
v -0.533818 0.013410 -0.495431
v -0.421020 2.006428 -0.552388
vt 0.250000 0.490000
vt 0.250000 0.250000
vt 0.457846 0.130000
vt 0.750000 0.490000
vt 0.957846 0.130000
vt 0.542154 0.130000
vt 0.042154 0.130000
vn 0.8585 0.1157 0.4997
vn 0.0000 -1.0000 0.0000
vn -0.8660 0.0632 0.4960
vn 0.0035 -0.0288 -0.9996
usemtl None
s off
f 9/15/9 12/16/9 10/17/9
f 9/18/10 10/19/10 11/20/10
f 10/17/11 12/16/11 11/21/11
f 11/21/12 12/16/12 9/15/12
o Cone.003
v 0.095656 0.008937 -0.241040
v -0.211896 0.008937 -0.027473
v -0.243075 0.008937 -0.400604
v 0.026944 1.647665 -0.409503
vt 0.250000 0.490000
vt 0.250000 0.250000
vt 0.457846 0.130000
vt 0.750000 0.490000
vt 0.957846 0.130000
vt 0.542154 0.130000
vt 0.042154 0.130000
vn 0.5671 0.1077 0.8166
vn 0.0000 -1.0000 0.0000
vn -0.9833 0.1625 0.0822
vn 0.4250 -0.0749 -0.9021
usemtl None
s off
f 13/22/13 16/23/13 14/24/13
f 13/25/14 14/26/14 15/27/14
f 14/24/15 16/23/15 15/28/15
f 15/28/16 16/23/16 13/22/16
o Cone.004
v -0.340418 0.019201 -0.204016
v -0.372862 0.019201 0.013672
v -0.545164 0.019201 -0.123270
v -0.549765 1.281692 -0.163531
vt 0.250000 0.490000
vt 0.250000 0.250000
vt 0.457846 0.130000
vt 0.750000 0.490000
vt 0.957846 0.130000
vt 0.542154 0.130000
vt 0.042154 0.130000
vn 0.9768 0.1573 0.1456
vn 0.0000 -1.0000 -0.0000
vn -0.6220 0.0227 0.7827
vn -0.3667 -0.0310 -0.9298
usemtl None
s off
f 17/29/17 20/30/17 18/31/17
f 17/32/18 18/33/18 19/34/18
f 18/31/19 20/30/19 19/35/19
f 19/35/20 20/30/20 17/29/20
o Cone.005
v -0.457997 0.011328 0.138930
v -0.127721 0.011328 0.127570
v -0.283021 0.011328 0.419277
v -0.238107 1.904942 0.318020
vt 0.250000 0.490000
vt 0.250000 0.250000
vt 0.457846 0.130000
vt 0.750000 0.490000
vt 0.957846 0.130000
vt 0.542154 0.130000
vt 0.042154 0.130000
vn -0.0342 0.0980 -0.9946
vn 0.0000 -1.0000 0.0000
vn 0.8827 0.0042 0.4699
vn -0.8473 0.0484 0.5289
usemtl None
s off
f 21/36/21 24/37/21 22/38/21
f 21/39/22 22/40/22 23/41/22
f 22/38/23 24/37/23 23/42/23
f 23/42/24 24/37/24 21/36/24
