# Blender v2.90.1 OBJ File: 'bricks.blend'
# www.blender.org
mtllib walkway.mtl
o Plane
v -6.605865 0.000000 1.823073
v 6.618577 0.000000 1.823073
v -6.605865 0.000000 -1.744685
v 6.618577 0.000000 -1.744685
v -6.605865 0.198934 1.823073
v 6.618577 0.198934 1.823073
v -6.605865 0.198934 -1.744685
v 6.618577 0.198934 -1.744685
v -1.461220 0.000000 1.823073
v 1.501125 0.000000 1.823073
v -1.461220 0.198934 1.823073
v 1.501125 0.198934 1.823073
v -1.461220 0.000000 6.729330
v 1.501125 0.000000 6.729330
v -1.461220 0.198934 6.729330
v 1.501125 0.198934 6.729330
vt 1.000000 0.000000
vt 1.000000 1.000000
vt 1.000000 1.000000
vt 1.000000 0.000000
vt 0.000000 1.000000
vt 0.000000 0.000000
vt 0.000000 0.000000
vt 0.000000 1.000000
vt 0.666667 0.000000
vt 0.666667 0.000000
vt 0.333333 0.000000
vt 0.333333 0.000000
vt 0.333333 0.000000
vt 0.666667 0.000000
vt 0.333333 0.000000
vt 0.666667 0.000000
vn 1.0000 0.0000 0.0000
vn -1.0000 0.0000 0.0000
vn 0.0000 1.0000 0.0000
vn 0.0000 0.0000 1.0000
vn 0.0000 -1.0000 0.0000
usemtl None
s off
f 2/1/1 4/2/1 8/3/1 6/4/1
f 3/5/2 1/6/2 5/7/2 7/8/2
f 7/8/3 5/7/3 6/4/3 8/3/3
f 10/9/4 2/1/4 6/4/4 12/10/4
f 1/6/4 9/11/4 11/12/4 5/7/4
f 12/10/3 11/12/3 15/13/3 16/14/3
f 13/15/4 14/16/4 16/14/4 15/13/4
f 11/12/2 9/11/2 13/15/2 15/13/2
f 10/9/1 12/10/1 16/14/1 14/16/1
f 3/5/5 4/2/5 2/1/5 1/6/5
f 10/9/5 14/16/5 13/15/5 9/11/5
